<svg xmlns="http://www.w3.org/2000/svg" fill="none" viewBox="0 0 14 14" fill="currentColor"><path d="M9.34 1.628 8.631.921l.707.707ZM10.855 1V0v1ZM13 3.144h1-1Zm-.628 1.517-.707-.708.707.708ZM5.17 11.863l.263.965a1 1 0 0 0 .444-.258l-.707-.707ZM1 13l-.965-.263a1 1 0 0 0 1.228 1.228L1 13Zm1.137-4.17-.707-.707a1 1 0 0 0-.258.444l.965.263Zm7.91-6.495c.106-.106.232-.19.37-.248L9.653.24a3.15 3.15 0 0 0-1.02.682l1.415 1.414Zm.37-.248c.14-.057.288-.087.439-.087V0c-.413 0-.822.081-1.204.24l.766 1.847Zm.44-.087c.15 0 .299.03.438.087L12.059.24A3.145 3.145 0 0 0 10.856 0v2Zm.438.087c.138.058.265.142.37.248L13.08.921a3.146 3.146 0 0 0-1.02-.682l-.765 1.848Zm.37.248c.107.106.191.233.249.371l1.848-.765a3.147 3.147 0 0 0-.682-1.02l-1.414 1.414Zm.249.371c.057.14.087.288.087.438h2c0-.413-.081-.821-.24-1.203l-1.847.765Zm.087.438c0 .15-.03.3-.087.438l1.848.766c.158-.382.239-.79.239-1.204h-2Zm-.087.438a1.144 1.144 0 0 1-.248.371l1.414 1.415a3.15 3.15 0 0 0 .682-1.02l-1.848-.766Zm-.248.371-7.202 7.203 1.414 1.414 7.202-7.202-1.414-1.415Zm-6.758 6.945-4.17 1.137.526 1.93 4.17-1.137-.526-1.93Zm-2.942 2.365 1.137-4.17-1.93-.526-1.137 4.17 1.93.526Zm.88-3.726 7.201-7.202L8.633.921 1.43 8.123l1.414 1.414ZM7 4l3 3 1.414-1.414-3-3L7 4Z"/></svg>